<mxfile host="app.diagrams.net" modified="2023-07-31T02:50:22.992Z" agent="Mozilla/5.0 (Windows NT 10.0; Win64; x64) AppleWebKit/537.36 (KHTML, like Gecko) Chrome/112.0.0.0 Safari/537.36" etag="c2MBZ6AIYXPMRYmlHC9n" version="21.6.5" type="github">
  <diagram name="Page-1" id="55a83fd1-7818-8e21-69c5-c3457e3827bb">
    <mxGraphModel dx="819" dy="437" grid="0" gridSize="10" guides="1" tooltips="1" connect="1" arrows="1" fold="1" page="1" pageScale="1" pageWidth="1100" pageHeight="850" background="none" math="0" shadow="0">
      <root>
        <mxCell id="0" />
        <mxCell id="1" parent="0" />
        <mxCell id="8FrTbTZE2b99i6v4mtXq-2" value="Global max pool" style="rounded=1;whiteSpace=wrap;html=1;" parent="1" vertex="1">
          <mxGeometry x="490" y="230" width="120" height="20" as="geometry" />
        </mxCell>
        <mxCell id="8FrTbTZE2b99i6v4mtXq-6" value="conv 1x1，stride=1" style="rounded=1;whiteSpace=wrap;html=1;" parent="1" vertex="1">
          <mxGeometry x="490" y="250" width="120" height="20" as="geometry" />
        </mxCell>
        <mxCell id="8FrTbTZE2b99i6v4mtXq-7" value="conv 1x1，stride=1" style="rounded=1;whiteSpace=wrap;html=1;" parent="1" vertex="1">
          <mxGeometry x="490" y="270" width="120" height="20" as="geometry" />
        </mxCell>
        <mxCell id="kM_bf1wAZjGy2IC31JI6-1" value="conv 1x1，stride=1" style="rounded=1;whiteSpace=wrap;html=1;" vertex="1" parent="1">
          <mxGeometry x="457" y="377" width="120" height="20" as="geometry" />
        </mxCell>
        <mxCell id="kM_bf1wAZjGy2IC31JI6-2" value="eltwise prod" style="rounded=1;whiteSpace=wrap;html=1;" vertex="1" parent="1">
          <mxGeometry x="560" y="426" width="120" height="20" as="geometry" />
        </mxCell>
        <mxCell id="kM_bf1wAZjGy2IC31JI6-5" value="Global ave pool" style="rounded=1;whiteSpace=wrap;html=1;" vertex="1" parent="1">
          <mxGeometry x="630" y="230" width="120" height="20" as="geometry" />
        </mxCell>
        <mxCell id="kM_bf1wAZjGy2IC31JI6-6" value="conv 1x1，stride=1" style="rounded=1;whiteSpace=wrap;html=1;" vertex="1" parent="1">
          <mxGeometry x="630" y="250" width="120" height="20" as="geometry" />
        </mxCell>
        <mxCell id="kM_bf1wAZjGy2IC31JI6-7" value="conv 1x1，stride=1" style="rounded=1;whiteSpace=wrap;html=1;" vertex="1" parent="1">
          <mxGeometry x="630" y="270" width="120" height="20" as="geometry" />
        </mxCell>
        <mxCell id="kM_bf1wAZjGy2IC31JI6-10" value="axpy" style="rounded=1;whiteSpace=wrap;html=1;" vertex="1" parent="1">
          <mxGeometry x="560" y="330" width="120" height="20" as="geometry" />
        </mxCell>
        <mxCell id="kM_bf1wAZjGy2IC31JI6-11" value="eltwise sum" style="rounded=1;whiteSpace=wrap;html=1;" vertex="1" parent="1">
          <mxGeometry x="559" y="161" width="109" height="20" as="geometry" />
        </mxCell>
        <mxCell id="kM_bf1wAZjGy2IC31JI6-17" value="" style="curved=1;endArrow=classic;html=1;rounded=0;entryX=0.5;entryY=0;entryDx=0;entryDy=0;exitX=0.5;exitY=1;exitDx=0;exitDy=0;" edge="1" parent="1" source="kM_bf1wAZjGy2IC31JI6-11" target="kM_bf1wAZjGy2IC31JI6-10">
          <mxGeometry width="50" height="50" relative="1" as="geometry">
            <mxPoint x="470" y="190" as="sourcePoint" />
            <mxPoint x="410" y="215" as="targetPoint" />
            <Array as="points">
              <mxPoint x="410" y="240" />
              <mxPoint x="460" y="310" />
            </Array>
          </mxGeometry>
        </mxCell>
        <mxCell id="kM_bf1wAZjGy2IC31JI6-20" value="" style="endArrow=classic;html=1;rounded=0;exitX=0.5;exitY=1;exitDx=0;exitDy=0;entryX=0.5;entryY=0;entryDx=0;entryDy=0;" edge="1" parent="1" source="kM_bf1wAZjGy2IC31JI6-10" target="kM_bf1wAZjGy2IC31JI6-2">
          <mxGeometry width="50" height="50" relative="1" as="geometry">
            <mxPoint x="620" y="380" as="sourcePoint" />
            <mxPoint x="550" y="420" as="targetPoint" />
          </mxGeometry>
        </mxCell>
        <mxCell id="kM_bf1wAZjGy2IC31JI6-21" value="" style="curved=1;endArrow=classic;html=1;rounded=0;exitX=0.5;exitY=1;exitDx=0;exitDy=0;entryX=0.5;entryY=0;entryDx=0;entryDy=0;" edge="1" parent="1" source="kM_bf1wAZjGy2IC31JI6-1" target="kM_bf1wAZjGy2IC31JI6-2">
          <mxGeometry width="50" height="50" relative="1" as="geometry">
            <mxPoint x="470" y="410" as="sourcePoint" />
            <mxPoint x="510" y="450" as="targetPoint" />
            <Array as="points">
              <mxPoint x="515" y="420" />
            </Array>
          </mxGeometry>
        </mxCell>
        <mxCell id="kM_bf1wAZjGy2IC31JI6-22" value="" style="curved=1;endArrow=classic;html=1;rounded=0;exitX=0.5;exitY=1;exitDx=0;exitDy=0;entryX=0.5;entryY=0;entryDx=0;entryDy=0;" edge="1" parent="1" source="kM_bf1wAZjGy2IC31JI6-10" target="kM_bf1wAZjGy2IC31JI6-1">
          <mxGeometry width="50" height="50" relative="1" as="geometry">
            <mxPoint x="600" y="360" as="sourcePoint" />
            <mxPoint x="450" y="360" as="targetPoint" />
            <Array as="points">
              <mxPoint x="550" y="350" />
            </Array>
          </mxGeometry>
        </mxCell>
        <mxCell id="kM_bf1wAZjGy2IC31JI6-24" value="" style="endArrow=classic;html=1;rounded=0;exitX=0.5;exitY=1;exitDx=0;exitDy=0;entryX=0.5;entryY=0;entryDx=0;entryDy=0;" edge="1" parent="1" target="kM_bf1wAZjGy2IC31JI6-29">
          <mxGeometry width="50" height="50" relative="1" as="geometry">
            <mxPoint x="619.5" y="442" as="sourcePoint" />
            <mxPoint x="620" y="472" as="targetPoint" />
          </mxGeometry>
        </mxCell>
        <mxCell id="kM_bf1wAZjGy2IC31JI6-25" value="" style="curved=1;endArrow=classic;html=1;rounded=0;exitX=0.5;exitY=1;exitDx=0;exitDy=0;entryX=0.5;entryY=0;entryDx=0;entryDy=0;" edge="1" parent="1" target="kM_bf1wAZjGy2IC31JI6-10">
          <mxGeometry width="50" height="50" relative="1" as="geometry">
            <mxPoint x="552" y="290" as="sourcePoint" />
            <mxPoint x="655" y="319" as="targetPoint" />
            <Array as="points">
              <mxPoint x="550" y="313" />
            </Array>
          </mxGeometry>
        </mxCell>
        <mxCell id="kM_bf1wAZjGy2IC31JI6-26" value="" style="curved=1;endArrow=classic;html=1;rounded=0;exitX=0.5;exitY=1;exitDx=0;exitDy=0;entryX=0.5;entryY=0;entryDx=0;entryDy=0;" edge="1" parent="1" source="kM_bf1wAZjGy2IC31JI6-7" target="kM_bf1wAZjGy2IC31JI6-10">
          <mxGeometry width="50" height="50" relative="1" as="geometry">
            <mxPoint x="690" y="300" as="sourcePoint" />
            <mxPoint x="630" y="342" as="targetPoint" />
            <Array as="points">
              <mxPoint x="670" y="320" />
            </Array>
          </mxGeometry>
        </mxCell>
        <mxCell id="kM_bf1wAZjGy2IC31JI6-27" value="" style="curved=1;endArrow=classic;html=1;rounded=0;exitX=0.5;exitY=1;exitDx=0;exitDy=0;entryX=0.5;entryY=0;entryDx=0;entryDy=0;" edge="1" parent="1" source="kM_bf1wAZjGy2IC31JI6-11" target="8FrTbTZE2b99i6v4mtXq-2">
          <mxGeometry width="50" height="50" relative="1" as="geometry">
            <mxPoint x="630" y="200" as="sourcePoint" />
            <mxPoint x="527" y="227" as="targetPoint" />
            <Array as="points">
              <mxPoint x="560" y="200" />
            </Array>
          </mxGeometry>
        </mxCell>
        <mxCell id="kM_bf1wAZjGy2IC31JI6-28" value="" style="curved=1;endArrow=classic;html=1;rounded=0;exitX=0.5;exitY=1;exitDx=0;exitDy=0;entryX=0.5;entryY=0;entryDx=0;entryDy=0;" edge="1" parent="1" source="kM_bf1wAZjGy2IC31JI6-11" target="kM_bf1wAZjGy2IC31JI6-5">
          <mxGeometry width="50" height="50" relative="1" as="geometry">
            <mxPoint x="640" y="190" as="sourcePoint" />
            <mxPoint x="720" y="240" as="targetPoint" />
            <Array as="points">
              <mxPoint x="670" y="190" />
            </Array>
          </mxGeometry>
        </mxCell>
        <mxCell id="kM_bf1wAZjGy2IC31JI6-29" value="output" style="rounded=1;whiteSpace=wrap;html=1;" vertex="1" parent="1">
          <mxGeometry x="589" y="469" width="62" height="20" as="geometry" />
        </mxCell>
        <mxCell id="kM_bf1wAZjGy2IC31JI6-34" style="edgeStyle=orthogonalEdgeStyle;rounded=0;orthogonalLoop=1;jettySize=auto;html=1;exitX=0.5;exitY=1;exitDx=0;exitDy=0;entryX=0.5;entryY=0;entryDx=0;entryDy=0;" edge="1" parent="1" source="kM_bf1wAZjGy2IC31JI6-31" target="kM_bf1wAZjGy2IC31JI6-11">
          <mxGeometry relative="1" as="geometry" />
        </mxCell>
        <mxCell id="kM_bf1wAZjGy2IC31JI6-31" value="input" style="rounded=1;whiteSpace=wrap;html=1;" vertex="1" parent="1">
          <mxGeometry x="583" y="126" width="61" height="20" as="geometry" />
        </mxCell>
      </root>
    </mxGraphModel>
  </diagram>
</mxfile>
